<svg xmlns="http://www.w3.org/2000/svg" width="110" height="30" viewBox="0 0 512 74.129">
  <g id="logo-datavis" transform="translate(0 0.013)">
    <path id="Path_5345" data-name="Path 5345" d="M31.64,77.778H0V8.8H34.24a22.839,22.839,0,0,1,8.187,1.493,25.166,25.166,0,0,1,8.85,5.421,29.4,29.4,0,0,1,7.136,10.9,49.659,49.659,0,0,1,2.932,17.811,48.06,48.06,0,0,1-1,9.735,31.948,31.948,0,0,1-2.766,7.689,28.08,28.08,0,0,1-8.74,10.123,32.616,32.616,0,0,1-9.9,4.7A29.524,29.524,0,0,1,31.64,77.778ZM15.488,21.91v43.2H29.151a17.085,17.085,0,0,0,5.034-.774,15.857,15.857,0,0,0,5.642-2.987,16.743,16.743,0,0,0,4.591-6.306A27.469,27.469,0,0,0,46.3,44.312c0-8.021-1.881-14.05-5.587-17.867A15.89,15.89,0,0,0,29.1,21.854Z" transform="translate(0 -3.938)" fill="#fff" />
    <path id="Path_5346" data-name="Path 5346" d="M188.275,77.612,183.02,62.289h-25.5l-5.476,15.322H136.5L162.719,8.8H178.65l25.887,68.812Zm-9.016-26.385-8.684-25.334L161.5,51.226Z" transform="translate(-60.995 -3.938)" fill="#fff" />
    <path id="Path_5347" data-name="Path 5347" d="M467.275,77.612,462.02,62.289h-25.5l-5.476,15.322H415.5L441.719,8.8H457.65l25.887,68.812Zm-9.016-26.385-8.684-25.334L440.5,51.226Z" transform="translate(-185.667 -3.938)" fill="#fff" />
    <path id="Path_5348" data-name="Path 5348" d="M306.477,77.612V21.854H285.9V8.8h56.31V21.854H321.633V77.612Z" transform="translate(-127.755 -3.938)" fill="#fff" />
    <path id="Path_5349" data-name="Path 5349" d="M569.6,8.8,592,77.833h16.65L631.774,8.8H616.009L600.521,57.754,584.978,8.8Z" transform="translate(-254.527 -3.938)" fill="#fff" />
    <path id="Path_5350" data-name="Path 5350" d="M723.031,65H747.37a5.531,5.531,0,1,1,0,11.063H723.031a5.531,5.531,0,1,1,0-11.063Z" transform="translate(-320.616 -29.051)" fill="#fff" />
    <path id="Path_5351" data-name="Path 5351" d="M716.755,115h31.529a5.255,5.255,0,0,1,0,10.51H716.755a5.255,5.255,0,0,1,0-10.51Z" transform="translate(-317.935 -51.394)" fill="#fff" />
    <path id="Path_5352" data-name="Path 5352" d="M727.649,92h20.466a4.149,4.149,0,1,1,0,8.3H727.649a4.149,4.149,0,1,1,0-8.3Z" transform="translate(-323.297 -41.116)" fill="#fff" />
    <path id="Path_5353" data-name="Path 5353" d="M735.818,32.63a16.28,16.28,0,1,1,6.306-1.272A16.313,16.313,0,0,1,735.818,32.63Zm0-22.126a5.808,5.808,0,1,0,5.808,5.808,5.641,5.641,0,0,0-1.715-4.093A5.83,5.83,0,0,0,735.818,10.5Z" transform="translate(-321.51 0)" fill="#fff" />
    <path id="Path_5354" data-name="Path 5354" d="M861.345,27.962h15.1S877,6.5,849.673,6.5s-27.436,17.922-26.938,23.785,8.353,14.6,24.836,17.148c16.484,2.489,17.092,7.136,16.263,11.616-.885,4.48-6.361,7.412-15.267,6.8-8.961-.608-13.165-6.2-13.276-12.446h-14.6s-1.6,23.564,29.04,23.619c30.644.111,29.1-20.024,28.93-22.679s-.719-13.22-16.539-17.7-23.785-4.646-24.5-9.625,2.544-8.961,11.505-8.961C857.971,18.061,861.345,23.094,861.345,27.962Z" transform="translate(-366.72 -2.91)" fill="#fff" />
  </g>
</svg>