<svg xmlns="http://www.w3.org/2000/svg" width="412.62" height="101" viewBox="0 0 412.62 101">
  <path id="i-mops_logo" d="M270,97V23.889A3.893,3.893,0,0,1,273.889,20H314.5a17.5,17.5,0,1,1,0,35H280a2,2,0,0,0-2,2V97a4,4,0,0,1-8,0Zm8-67.1V45.1a1.9,1.9,0,0,0,1.9,1.9h35.6a9.5,9.5,0,0,0,0-19H279.9A1.9,1.9,0,0,0,278,29.9ZM0,76.35V19.92a3.5,3.5,0,1,1,7,0V76.35a3.5,3.5,0,0,1-7,0Zm161-.969V31.62a3.749,3.749,0,0,0-3.77-3.749H132.62a3.759,3.759,0,0,0-3.76,3.759V75.38a4,4,0,0,1-8,0V31.63a3.75,3.75,0,0,0-3.75-3.759H87.05a1.8,1.8,0,0,0-1.8,1.8V74.93a4,4,0,0,1-8,0V23.05a3.18,3.18,0,0,1,3.181-3.18H157.2A11.8,11.8,0,0,1,169,31.67V75.38a4,4,0,0,1-8,0ZM200,79a11,11,0,0,1-11-11V31a11,11,0,0,1,11-11h39a11,11,0,0,1,11,11V68a11,11,0,0,1-11,11Zm-3-45V65a6.007,6.007,0,0,0,6,6h33a6.007,6.007,0,0,0,6-6V34a6.007,6.007,0,0,0-6-6H203A6.007,6.007,0,0,0,197,34ZM355.1,75.863A10.521,10.521,0,0,1,352,68.42v-2a1.88,1.88,0,0,1,1.88-1.88h4.25A1.869,1.869,0,0,1,360,66.47a4.46,4.46,0,0,0,4.46,4.46H398.38a6.241,6.241,0,0,0,6.241-6.25v-5a6,6,0,0,0-6-6h-36A10.551,10.551,0,0,1,352,43.16V30.65a10.48,10.48,0,0,1,10.52-10.48h38.26A11.84,11.84,0,0,1,412.62,32V33.51a1.741,1.741,0,0,1-1.741,1.741h-4.51a1.75,1.75,0,0,1-1.75-1.741,5.35,5.35,0,0,0-5.341-5.35H365.05a5,5,0,0,0-5,5v6.93a5.6,5.6,0,0,0,5.6,5.591h37.06a9.92,9.92,0,0,1,9.91,9.92V68.78a10.14,10.14,0,0,1-10.14,10.15H362.519A10.517,10.517,0,0,1,355.1,75.863ZM31,55a4,4,0,0,1,0-8H53a4,4,0,0,1,0,8ZM0,3.5A3.5,3.5,0,1,1,3.5,7,3.5,3.5,0,0,1,0,3.5Z" fill="#fff"/>
</svg>
