<svg xmlns="http://www.w3.org/2000/svg" width="11.744" height="17.944" viewBox="0 0 11.744 17.944">
  <g id="fire" transform="translate(-88.456)">
    <path id="Path_5228" data-name="Path 5228" d="M99.677,9.788C98.622,7.343,95.669,3.111,97.071.26a.179.179,0,0,0-.219-.25c-1.218.431-4.469,1.963-3.461,5.813a6.236,6.236,0,0,0-1.765-1.455.179.179,0,0,0-.246.179c.176,2.328-1.479,3.575-2.437,5.541a5.144,5.144,0,0,0,.39,5.016,6.139,6.139,0,0,0,2.773,2.527q-.107-.1-.206-.211a3.437,3.437,0,0,1-.837-2.681,6.2,6.2,0,0,1,1.481-2.775c.808-1.06,1.571-2.061,1.192-2.934a.533.533,0,0,1,.731-.686,4.191,4.191,0,0,1,1.475,1.431,4.754,4.754,0,0,1,.656,3.069l.032-.005a.533.533,0,0,1,.551.3,4.236,4.236,0,0,1-.133,3.991,3.014,3.014,0,0,1-.747.813C99.752,16.88,101.014,12.885,99.677,9.788Z" fill="#fff"/>
    <path id="Path_5229" data-name="Path 5229" d="M195.354,287.042a7.126,7.126,0,0,1-1.453,2.552,5.571,5.571,0,0,0-1.27,2.251,2.371,2.371,0,0,0,.574,1.85,2.269,2.269,0,0,0,1.718.761,1.94,1.94,0,0,0,1.735-.912,2.979,2.979,0,0,0,.363-1.995,1.722,1.722,0,0,1-.727.282.533.533,0,0,1-.565-.7A4.124,4.124,0,0,0,195.354,287.042Z" transform="translate(-100.508 -276.982)" fill="#fff"/>
  </g>
</svg>
