<svg xmlns="http://www.w3.org/2000/svg" width="11.769" height="18.264" viewBox="0 0 11.769 18.264">
  <path id="Path_5237" data-name="Path 5237" d="M9.931,18.26,5.2,17.929l.6-2.437a.586.586,0,0,0,.983-.387l.093-1.331a1.168,1.168,0,1,0-1.187-2l1-2.541,2.253.158L9.06,7.635A2.345,2.345,0,0,0,7.013,5.147l.337-1.133a3.518,3.518,0,0,1,2.878,3.7l-.122,1.752.438.031a1.319,1.319,0,0,1,1.222,1.406l-.429,6.133a1.319,1.319,0,0,1-1.313,1.225C9.993,18.264,9.962,18.263,9.931,18.26Zm-8.614-.1A1.319,1.319,0,0,1,0,16.841V10.693A1.319,1.319,0,0,1,1.317,9.376h.439V7.619A3.517,3.517,0,0,1,5.269,4.106a3.57,3.57,0,0,1,.384.021L5.4,5.281c-.042,0-.084,0-.127,0A2.345,2.345,0,0,0,2.928,7.619V9.376H5.353l-.823,2.6a1.167,1.167,0,0,0-.432.908,1.153,1.153,0,0,0,.045.319l.047.132a1.19,1.19,0,0,0,.494.558V15.23a.584.584,0,0,0,.217.455l-.425,2.472H1.317ZM7.4,3.113a.219.219,0,0,1-.038-.307L8.7,1.082a.219.219,0,1,1,.345.269L7.7,3.075a.219.219,0,0,1-.307.038ZM4,3.075,2.655,1.351A.219.219,0,0,1,3,1.082L4.346,2.806A.219.219,0,0,1,4,3.075Zm1.577-.669V.219a.219.219,0,0,1,.437,0V2.406a.219.219,0,1,1-.437,0Z" fill="#fff"/>
</svg>
